<?xml version="1.0" encoding="UTF-8" standalone="no"?>
<!-- Created with Inkscape (http://www.inkscape.org/) -->

<svg
   xmlns:dc="http://purl.org/dc/elements/1.1/"
   xmlns:cc="http://creativecommons.org/ns#"
   xmlns:rdf="http://www.w3.org/1999/02/22-rdf-syntax-ns#"
   xmlns:svg="http://www.w3.org/2000/svg"
   xmlns="http://www.w3.org/2000/svg"
   xmlns:sodipodi="http://sodipodi.sourceforge.net/DTD/sodipodi-0.dtd"
   xmlns:inkscape="http://www.inkscape.org/namespaces/inkscape"
   width="30mm"
   height="20mm"
   viewBox="0 0 30 20"
   version="1.1"
   id="svg3033"
   inkscape:version="0.92.3 (2405546, 2018-03-11)"
   sodipodi:docname="masudgroup.svg">
  <defs
     id="defs3027" />
  <sodipodi:namedview
     id="base"
     pagecolor="#ffffff"
     bordercolor="#666666"
     borderopacity="1.0"
     inkscape:pageopacity="0.0"
     inkscape:pageshadow="2"
     inkscape:zoom="1.979899"
     inkscape:cx="130.99963"
     inkscape:cy="108.92228"
     inkscape:document-units="mm"
     inkscape:current-layer="layer1"
     showgrid="false"
     inkscape:window-width="1879"
     inkscape:window-height="1059"
     inkscape:window-x="41"
     inkscape:window-y="21"
     inkscape:window-maximized="1" />
  <metadata
     id="metadata3030">
    <rdf:RDF>
      <cc:Work
         rdf:about="">
        <dc:format>image/svg+xml</dc:format>
        <dc:type
           rdf:resource="http://purl.org/dc/dcmitype/StillImage" />
        <dc:title></dc:title>
      </cc:Work>
    </rdf:RDF>
  </metadata>
  <g
     inkscape:label="Layer 1"
     inkscape:groupmode="layer"
     id="layer1"
     transform="translate(0,-277)">
    <path
       d="m 4.2597956,295.37245 h -0.31891 v -1.3582 l -0.44873,1.3582 h -0.37888 l -0.46355,-1.37055 v 1.37055 h -0.32632 v -1.74167 h 0.52846 l 0.44062,1.35573 0.44626,-1.35573 h 0.52105 z"
       style="fill:#797677;fill-opacity:1;fill-rule:nonzero;stroke:none;stroke-width:0.35277775"
       id="path14"
       inkscape:connector-curvature="0" />
    <path
       d="m 6.1361858,294.64759 -0.2642298,-0.68791 -0.25858,0.68791 -0.11748,0.30374 -0.15205,0.42122 h -0.37147 l 0.72249,-1.74202 h 0.37641 l 0.7351898,1.74202 h -0.39088 l -0.16192,-0.42122 z"
       style="fill:#797677;fill-opacity:1;fill-rule:nonzero;stroke:none;stroke-width:0.35277775"
       id="path18"
       inkscape:connector-curvature="0" />
    <path
       d="m 9.0545058,294.85309 c 0,0.15169 -0.0324,0.26705 -0.097,0.34678 -0.0931,0.11571 -0.26106,0.17251 -0.50377,0.17251 h -0.96167 v -0.30375 h 0.90452 c 0.0945,0 0.16369,-0.0127 0.20673,-0.0377 0.0536,-0.0317 0.0801,-0.085 0.0801,-0.16051 0,-0.0766 -0.0212,-0.13159 -0.0639,-0.16404 -0.0423,-0.0325 -0.10936,-0.049 -0.20038,-0.049 h -0.42651 c -0.18944,0 -0.33055,-0.0381 -0.42368,-0.1143 -0.0998,-0.0815 -0.14958,-0.21167 -0.14958,-0.38876 0,-0.18133 0.049,-0.31397 0.14605,-0.39758 0.097,-0.0843 0.24871,-0.12594 0.45473,-0.12594 h 0.94968 v 0.30409 h -0.89253 c -0.19262,0 -0.28893,0.078 -0.28893,0.23424 0,0.0646 0.0215,0.11325 0.0646,0.14605 0.0437,0.0321 0.1009,0.0483 0.17216,0.0483 h 0.47836 c 0.16934,0 0.29316,0.0226 0.36866,0.0674 0.1217,0.0716 0.18238,0.21238 0.18238,0.42228"
       style="fill:#797677;fill-opacity:1;fill-rule:nonzero;stroke:none;stroke-width:0.35277775"
       id="path30"
       inkscape:connector-curvature="0" />
    <path
       d="m 11.397166,294.68739 v 0.0875 c 0,0.17074 -0.036,0.30233 -0.1076,0.39334 -0.11606,0.14782 -0.32702,0.2219 -0.63288,0.2219 -0.34043,0 -0.56374,-0.084 -0.6702802,-0.25188 -0.0515,-0.0811 -0.0776,-0.21414 -0.0776,-0.39864 v -1.10913 h 0.3492502 v 1.04704 0.0818 c 0,0.1016 0.0197,0.17956 0.0596,0.2346 0.0617,0.0847 0.17462,0.127 0.33902,0.127 0.14605,0 0.24765,-0.0325 0.30409,-0.097 0.0564,-0.0646 0.0847,-0.18062 0.0847,-0.34643 v -1.04704 h 0.35172 z"
       style="fill:#797677;fill-opacity:1;fill-rule:nonzero;stroke:none;stroke-width:0.35277775"
       id="path34"
       inkscape:connector-curvature="0" />
    <path
       d="m 12.334246,295.07855 0.77506,-0.005 c 0.16792,0 0.28187,-0.0384 0.34254,-0.11501 0.0607,-0.0765 0.091,-0.22895 0.091,-0.4572 0,-0.24941 -0.0441,-0.41522 -0.13229,-0.49671 -0.0582,-0.0533 -0.15698,-0.0797 -0.29633,-0.0797 h -0.78 v -0.29425 h 0.78529 c 0.31185,0 0.53269,0.0857 0.66251,0.25717 0.0963,0.12806 0.14464,0.30833 0.14464,0.54151 0,0.381 -0.0734,0.64171 -0.21943,0.78105 -0.11324,0.10866 -0.3055,0.16193 -0.5782,0.16193 h -0.79481 z"
       style="fill:#797677;fill-opacity:1;fill-rule:nonzero;stroke:none;stroke-width:0.35277775"
       id="path38"
       inkscape:connector-curvature="0" />
    <path
       d="m 17.614556,295.36243 h -0.78952 c -0.11112,0 -0.19967,-0.008 -0.26529,-0.0247 -0.14322,-0.036 -0.25682,-0.1069 -0.34219,-0.21167 -0.11289,-0.14146 -0.16933,-0.33831 -0.16933,-0.59126 0,-0.26599 0.0497,-0.4706 0.14993,-0.61348 0.12911,-0.18521 0.34642,-0.27799 0.65158,-0.27799 h 0.76482 v 0.29034 h -0.76482 c -0.14288,0 -0.24624,0.0473 -0.31151,0.14252 -0.0646,0.0956 -0.0963,0.23354 -0.0963,0.41416 0,0.18098 0.0275,0.31645 0.0829,0.40711 0.066,0.10654 0.17392,0.15981 0.32491,0.15981 h 0.40534 v -0.41311 h -0.47413 v -0.29774 h 0.83362 z"
       style="fill:#797677;fill-opacity:1;fill-rule:nonzero;stroke:none;stroke-width:0.35277775"
       id="path42"
       inkscape:connector-curvature="0" />
    <path
       d="m 18.916796,293.64334 h 0.87736 c 0.19756,0 0.34255,0.037 0.43568,0.11077 0.10513,0.0818 0.15769,0.21696 0.15769,0.40534 0,0.12806 -0.0257,0.23107 -0.0765,0.30727 -0.0575,0.0875 -0.14534,0.14464 -0.26282,0.17251 l 0.41311,0.7232 h -0.38876 l -0.37854,-0.67628 h -0.42827 v 0.67628 h -0.34889 v -0.97367 h 0.79057 c 0.11536,0 0.19226,-0.01 0.23178,-0.0272 0.0649,-0.0296 0.0967,-0.0953 0.0967,-0.19685 0,-0.0836 -0.0261,-0.14111 -0.0797,-0.17216 -0.0522,-0.031 -0.13547,-0.0473 -0.25118,-0.0473 h -0.78811 z"
       style="fill:#797677;fill-opacity:1;fill-rule:nonzero;stroke:none;stroke-width:0.35277775"
       id="path46"
       inkscape:connector-curvature="0" />
    <path
       d="m 22.576866,294.50391 v 0 c 0,-0.22472 -0.0448,-0.38559 -0.13511,-0.48437 -0.0759,-0.0818 -0.18697,-0.12312 -0.33479,-0.12312 -0.1457,0 -0.26035,0.0504 -0.34396,0.15134 -0.084,0.10125 -0.12488,0.25048 -0.12488,0.44874 0,0.18873 0.0222,0.32632 0.0681,0.41345 0.0705,0.13406 0.20426,0.20144 0.40076,0.20144 0.1725,0 0.29598,-0.0554 0.37182,-0.16686 0.0653,-0.097 0.0981,-0.24377 0.0981,-0.44062 m 0.38136,-0.004 c 0,0.32526 -0.0871,0.56268 -0.26071,0.71225 -0.14287,0.12277 -0.33866,0.18451 -0.58772,0.18451 -0.12983,0 -0.24201,-0.0152 -0.33691,-0.0444 -0.14922,-0.0455 -0.26599,-0.12806 -0.35172,-0.24589 -0.1083,-0.14993 -0.16227,-0.35313 -0.16227,-0.61101 0,-0.24624 0.0441,-0.43991 0.13264,-0.58103 0.0741,-0.11641 0.18239,-0.20037 0.32456,-0.25117 0.10654,-0.0378 0.236,-0.0572 0.38876,-0.0572 0.24271,0 0.43109,0.0473 0.56585,0.14075 0.11289,0.0787 0.19262,0.19262 0.23813,0.3422 0.0328,0.1083 0.0494,0.24589 0.0494,0.41099"
       style="fill:#797677;fill-opacity:1;fill-rule:nonzero;stroke:none;stroke-width:0.35277775"
       id="path50"
       inkscape:connector-curvature="0" />
    <path
       d="m 25.216496,294.68601 v 0.0861 c 0,0.16898 -0.0356,0.2981 -0.10584,0.38841 -0.11465,0.1464 -0.32279,0.21872 -0.62441,0.21872 -0.3362,0 -0.55669,-0.0826 -0.66146,-0.248 -0.0512,-0.0804 -0.0762,-0.21167 -0.0762,-0.3937 v -1.09432 h 0.34396 v 1.03258 0.0815 c 0,0.0998 0.0198,0.17745 0.0593,0.23107 0.0603,0.0836 0.17215,0.12559 0.33443,0.12559 0.14428,0 0.24412,-0.0317 0.29986,-0.0967 0.0557,-0.0635 0.0843,-0.17709 0.0843,-0.34149 v -1.03258 h 0.34607 z"
       style="fill:#797677;fill-opacity:1;fill-rule:nonzero;stroke:none;stroke-width:0.35277775"
       id="path54"
       inkscape:connector-curvature="0" />
    <path
       d="m 26.216266,294.45723 h 0.78634 c 0.2219,0 0.33232,-0.0854 0.33232,-0.25576 0,-0.0967 -0.0282,-0.16404 -0.0847,-0.20038 -0.0564,-0.0367 -0.14535,-0.0557 -0.2667,-0.0557 h -0.7673 v -0.30198 h 0.774 c 0.2674,0 0.45614,0.0441 0.56727,0.13265 0.11077,0.0878 0.1658,0.22966 0.1658,0.42439 0,0.22578 -0.085,0.38312 -0.25541,0.47343 -0.10513,0.0557 -0.23636,0.0836 -0.39335,0.0836 h -0.0444 -0.025 -0.43709 v 0.60501 h -0.35172 z"
       style="fill:#797677;fill-opacity:1;fill-rule:nonzero;stroke:none;stroke-width:0.35277775"
       id="path58"
       inkscape:connector-curvature="0" />
    <path
       d="m 15.587106,283.04812 4.1656,7.85001 c 1.28729,0.34466 2.3502,0.24836 2.3502,0.24836 6.35177,-0.88124 5.59224,-7.2898 5.59224,-7.2898 h -2.34668 l -1.80058,2.15194 h 1.95686 c -0.44944,1.30457 -1.21814,2.13607 -2.08456,2.54988 -1.13912,0.54398 -2.35832,0.41134 -2.35832,0.41134 0,0 -1.13806,-0.0783 -2.08421,-0.89782 -0.76377,-0.66111 -1.55822,-1.53635 -1.52647,-3.00073 0.0603,-2.80388 1.95403,-3.7271 2.96933,-4.03401 0,0 0.54398,-0.11148 0.74542,-0.12877 0.20143,-0.0176 0.90522,-0.0377 0.90522,-0.0377 h 4.05236 l -1.17581,-2.18687 h -3.75426 c -1.14229,0.0571 -1.81292,0.34855 -1.81292,0.34855 -1.07915,0.38347 -1.92335,1.02764 -2.5019,1.66793 -0.68474,0.75812 -1.07139,1.60831 -1.29152,2.34774"
       style="fill:#ed1c24;fill-opacity:1;fill-rule:nonzero;stroke:none;stroke-width:0.35277775"
       id="path62"
       inkscape:connector-curvature="0" />
    <path
       d="m 4.5546856,284.21634 -2.23132,4.55154 1.28835,2.35938 3.4452202,-6.90669 z"
       style="fill:#ed1c24;fill-opacity:1;fill-rule:nonzero;stroke:none;stroke-width:0.35277775"
       id="path66"
       inkscape:connector-curvature="0" />
    <path
       d="m 11.195976,291.08362 h 2.67723 l -6.6085902,-12.37756 -2.5396398,5.11669 2.5731598,-3.5e-4 z"
       style="fill:#565353;fill-opacity:1;fill-rule:nonzero;stroke:none;stroke-width:0.35277775"
       id="path70"
       inkscape:connector-curvature="0" />
    <path
       d="m 16.478006,291.08362 h 2.67724 l -6.60859,-12.37756 -2.53965,5.11669 2.57281,-3.5e-4 z"
       style="fill:#565353;fill-opacity:1;fill-rule:nonzero;stroke:none;stroke-width:0.35277775"
       id="path74"
       inkscape:connector-curvature="0" />
    <path
       d="m 19.607536,286.00849 1.83444,-2.15195 h 3.36939 l -1.79282,2.14454 z"
       style="fill:#565353;fill-opacity:1;fill-rule:nonzero;stroke:none;stroke-width:0.35277775"
       id="path78"
       inkscape:connector-curvature="0" />
  </g>
</svg>
