<?xml version="1.0" encoding="UTF-8" standalone="no"?>
<!-- Created with Inkscape (http://www.inkscape.org/) -->

<svg
   xmlns:dc="http://purl.org/dc/elements/1.1/"
   xmlns:cc="http://creativecommons.org/ns#"
   xmlns:rdf="http://www.w3.org/1999/02/22-rdf-syntax-ns#"
   xmlns:svg="http://www.w3.org/2000/svg"
   xmlns="http://www.w3.org/2000/svg"
   xmlns:sodipodi="http://sodipodi.sourceforge.net/DTD/sodipodi-0.dtd"
   xmlns:inkscape="http://www.inkscape.org/namespaces/inkscape"
   width="150mm"
   height="110mm"
   viewBox="0 0 150 110"
   version="1.1"
   id="svg2968"
   inkscape:version="0.92.3 (2405546, 2018-03-11)"
   sodipodi:docname="ms.logo.svg">
  <defs
     id="defs2962">
    <linearGradient
       x1="0"
       y1="0"
       x2="1"
       y2="0"
       gradientUnits="userSpaceOnUse"
       gradientTransform="matrix(-73.292965,-6.5818926e-6,6.441694e-6,-74.888134,83.043996,273.14134)"
       spreadMethod="pad"
       id="linearGradient248">
      <stop
         style="stop-opacity:1;stop-color:#4f4c4d"
         offset="0"
         id="stop244" />
      <stop
         style="stop-opacity:1;stop-color:#ffffff"
         offset="1"
         id="stop246" />
    </linearGradient>
    <linearGradient
       x1="0"
       y1="0"
       x2="1"
       y2="0"
       gradientUnits="userSpaceOnUse"
       gradientTransform="matrix(-73.292965,-6.5818926e-6,6.441694e-6,-74.888134,83.043996,272.32362)"
       spreadMethod="pad"
       id="linearGradient268">
      <stop
         style="stop-opacity:1;stop-color:#4f4c4d"
         offset="0"
         id="stop264" />
      <stop
         style="stop-opacity:1;stop-color:#ffffff"
         offset="1"
         id="stop266" />
    </linearGradient>
    <linearGradient
       x1="0"
       y1="0"
       x2="1"
       y2="0"
       gradientUnits="userSpaceOnUse"
       gradientTransform="matrix(-73.292965,-6.5818926e-6,6.441694e-6,-74.888134,83.043996,271.50588)"
       spreadMethod="pad"
       id="linearGradient288">
      <stop
         style="stop-opacity:1;stop-color:#4f4c4d"
         offset="0"
         id="stop284" />
      <stop
         style="stop-opacity:1;stop-color:#ffffff"
         offset="1"
         id="stop286" />
    </linearGradient>
    <linearGradient
       x1="0"
       y1="0"
       x2="1"
       y2="0"
       gradientUnits="userSpaceOnUse"
       gradientTransform="matrix(-73.292965,-6.5818926e-6,6.441694e-6,-74.888134,83.043996,270.68815)"
       spreadMethod="pad"
       id="linearGradient308">
      <stop
         style="stop-opacity:1;stop-color:#4f4c4d"
         offset="0"
         id="stop304" />
      <stop
         style="stop-opacity:1;stop-color:#ffffff"
         offset="1"
         id="stop306" />
    </linearGradient>
    <linearGradient
       x1="0"
       y1="0"
       x2="1"
       y2="0"
       gradientUnits="userSpaceOnUse"
       gradientTransform="matrix(-73.292965,-6.5818926e-6,6.441694e-6,-74.888134,83.043996,269.8704)"
       spreadMethod="pad"
       id="linearGradient328">
      <stop
         style="stop-opacity:1;stop-color:#4f4c4d"
         offset="0"
         id="stop324" />
      <stop
         style="stop-opacity:1;stop-color:#ffffff"
         offset="1"
         id="stop326" />
    </linearGradient>
    <linearGradient
       x1="0"
       y1="0"
       x2="1"
       y2="0"
       gradientUnits="userSpaceOnUse"
       gradientTransform="matrix(-73.292965,-6.5818926e-6,6.441694e-6,-74.888134,83.043996,269.0527)"
       spreadMethod="pad"
       id="linearGradient348">
      <stop
         style="stop-opacity:1;stop-color:#4f4c4d"
         offset="0"
         id="stop344" />
      <stop
         style="stop-opacity:1;stop-color:#ffffff"
         offset="1"
         id="stop346" />
    </linearGradient>
    <linearGradient
       x1="0"
       y1="0"
       x2="1"
       y2="0"
       gradientUnits="userSpaceOnUse"
       gradientTransform="matrix(-73.292965,-6.5818926e-6,6.441694e-6,-74.888134,83.043996,268.23492)"
       spreadMethod="pad"
       id="linearGradient368">
      <stop
         style="stop-opacity:1;stop-color:#4f4c4d"
         offset="0"
         id="stop364" />
      <stop
         style="stop-opacity:1;stop-color:#ffffff"
         offset="1"
         id="stop366" />
    </linearGradient>
  </defs>
  <sodipodi:namedview
     id="base"
     pagecolor="#ffffff"
     bordercolor="#666666"
     borderopacity="1.0"
     inkscape:pageopacity="0.0"
     inkscape:pageshadow="2"
     inkscape:zoom="1.979899"
     inkscape:cx="303.70937"
     inkscape:cy="208.16578"
     inkscape:document-units="mm"
     inkscape:current-layer="layer1"
     showgrid="false"
     inkscape:window-width="1879"
     inkscape:window-height="1059"
     inkscape:window-x="41"
     inkscape:window-y="21"
     inkscape:window-maximized="1" />
  <metadata
     id="metadata2965">
    <rdf:RDF>
      <cc:Work
         rdf:about="">
        <dc:format>image/svg+xml</dc:format>
        <dc:type
           rdf:resource="http://purl.org/dc/dcmitype/StillImage" />
        <dc:title></dc:title>
      </cc:Work>
    </rdf:RDF>
  </metadata>
  <g
     inkscape:label="Layer 1"
     inkscape:groupmode="layer"
     id="layer1"
     transform="translate(0,-187)">
    <path
       d="m 116.8741,289.81114 c 0,0.32754 -0.2181,0.59236 -0.48492,0.59236 H 31.949346 c -0.268321,0 -0.486933,-0.26535 -0.486933,-0.59236 v -7.5966 c 0,-0.32909 0.218107,-0.59604 0.486933,-0.59604 h 84.439834 c 0.26682,0 0.48492,0.26691 0.48492,0.59604 z"
       style="fill:#e41b2f;fill-opacity:1;fill-rule:nonzero;stroke:none;stroke-width:1.80872655"
       id="path82"
       inkscape:connector-curvature="0" />
    <path
       d="m 122.03248,285.93953 c 0,0.72401 -0.57437,1.31089 -1.28296,1.31089 -0.71036,0 -1.28475,-0.58688 -1.28475,-1.31089 0,-0.72582 0.57439,-1.31455 1.28475,-1.31455 0.70859,0 1.28296,0.58873 1.28296,1.31455"
       style="fill:#e41b2f;fill-opacity:1;fill-rule:nonzero;stroke:none;stroke-width:1.80872655"
       id="path86"
       inkscape:connector-curvature="0" />
    <path
       d="m 126.24103,285.93953 c 0,0.50634 -0.40273,0.91966 -0.90002,0.91966 -0.49909,0 -0.90182,-0.41306 -0.90182,-0.91966 0,-0.50997 0.40273,-0.92147 0.90182,-0.92147 0.49759,0 0.90002,0.4115 0.90002,0.92147"
       style="fill:#e41b2f;fill-opacity:1;fill-rule:nonzero;stroke:none;stroke-width:1.80872655"
       id="path90"
       inkscape:connector-curvature="0" />
    <path
       d="m 130.45162,285.93953 c 0,0.29075 -0.2308,0.52836 -0.51894,0.52836 -0.28606,0 -0.51712,-0.23788 -0.51712,-0.52836 0,-0.29229 0.2308,-0.53024 0.51712,-0.53024 0.2881,0 0.51894,0.23789 0.51894,0.53024"
       style="fill:#e41b2f;fill-opacity:1;fill-rule:nonzero;stroke:none;stroke-width:1.80872655"
       id="path94"
       inkscape:connector-curvature="0" />
    <path
       d="m 26.300843,285.93677 c 0,-0.72399 0.576202,-1.31268 1.284787,-1.31268 0.710362,0 1.286564,0.58869 1.286564,1.31268 0,0.72585 -0.576202,1.31459 -1.286564,1.31459 -0.708585,0 -1.284787,-0.58874 -1.284787,-1.31459"
       style="fill:#e41b2f;fill-opacity:1;fill-rule:nonzero;stroke:none;stroke-width:1.80872655"
       id="path98"
       inkscape:connector-curvature="0" />
    <path
       d="m 22.092996,285.93953 c 0,-0.50997 0.402733,-0.92147 0.898288,-0.92147 0.501131,0 0.90361,0.4115 0.90361,0.92147 0,0.50634 -0.402732,0.92147 -0.90361,0.92147 -0.495555,0 -0.898288,-0.41513 -0.898288,-0.92147"
       style="fill:#e41b2f;fill-opacity:1;fill-rule:nonzero;stroke:none;stroke-width:1.80872655"
       id="path102"
       inkscape:connector-curvature="0" />
    <path
       d="m 17.883525,285.93953 c 0,-0.29436 0.230786,-0.53024 0.517163,-0.53024 0.284551,0 0.518885,0.23582 0.518885,0.53024 0,0.29075 -0.234334,0.52836 -0.518885,0.52836 -0.28658,0 -0.517163,-0.23788 -0.517163,-0.52836"
       style="fill:#e41b2f;fill-opacity:1;fill-rule:nonzero;stroke:none;stroke-width:1.80872655"
       id="path106"
       inkscape:connector-curvature="0" />
    <path
       d="m 38.822784,285.6547 v 0 c 0.322086,0 0.522489,-0.22855 0.572602,-0.60885 0.07151,-0.49754 -0.141511,-0.60698 -0.404256,-0.60698 h -0.953725 l -0.168396,1.21583 z m -0.29723,2.32741 v 0 c 0.27745,0 0.542168,-0.14457 0.619114,-0.70941 0.05731,-0.39697 -0.03044,-0.75505 -0.413385,-0.75505 h -0.991311 l -0.198831,1.46446 z m 3.501792,-3.38238 c 0.126805,-0.89949 0.644168,-1.08233 1.179185,-1.06771 0,0 1.585366,0.0519 1.991549,0.11706 l -0.11615,0.84836 h -1.798299 c -0.322084,0 -0.361647,0.21196 -0.386502,0.40941 l -0.11615,0.82092 1.823354,0.073 -0.12174,0.84283 -1.837709,0.073 -0.121741,0.84836 c -0.05174,0.38765 0.160792,0.38039 0.346938,0.38039 h 1.733881 l -0.121724,0.84286 c -0.373821,0.0585 -1.966492,0.12432 -1.966492,0.12432 -0.450919,0.0207 -1.062875,-0.19745 -0.934041,-1.12078 z m 4.672004,-1.06771 h 3.487491 l -0.135938,0.94337 h -1.315171 l -0.611962,4.41538 h -0.901836 l 0.611962,-4.41538 H 46.56524 Z m 4.886759,0 h 3.485667 l -0.134412,0.94337 h -1.315171 l -0.61196,4.41538 h -0.901838 l 0.611961,-4.41538 h -1.268658 z m 4.917143,1.06771 c 0.128839,-0.89949 0.645945,-1.08233 1.18096,-1.06771 0,0 1.583592,0.0519 1.989774,0.11706 l -0.116149,0.84836 h -1.7983 c -0.320562,0 -0.359619,0.21196 -0.386502,0.40941 l -0.114625,0.82092 1.823354,0.073 -0.123249,0.84283 -1.835883,0.073 -0.121725,0.84836 c -0.05174,0.38765 0.161299,0.38039 0.346939,0.38039 h 1.73388 l -0.12325,0.84286 c -0.37382,0.0585 -1.964715,0.12432 -1.964715,0.12432 -0.450919,0.0207 -1.06288,-0.19745 -0.934046,-1.12078 z m 6.420239,1.3767 v 0 c 0.341867,0 0.535014,-0.21195 0.586904,-0.77702 0.05731,-0.60699 -0.05174,-0.76054 -0.354546,-0.76054 h -0.998008 l -0.213031,1.53756 z m -1.546007,-2.44441 h 1.991548 c 0.708587,0 1.204243,0.48975 1.050353,1.77161 -0.155708,1.33285 -0.73542,1.44251 -0.966254,1.4773 l 0.669224,2.10984 h -1.018142 l -0.554696,-2.05133 -0.721115,-0.0638 -0.297231,2.11532 h -0.901836 z m 7.490269,0 h 3.485668 l -0.135937,0.94337 h -1.313397 l -0.613788,4.41538 h -0.90001 l 0.61196,-4.41538 h -1.270433 z m 5.115771,0 h 0.903613 l -0.322086,2.29816 h 1.617577 l 0.322084,-2.29816 h 0.900062 l -0.744396,5.35875 h -0.903614 l 0.297233,-2.12265 h -1.619352 l -0.295201,2.12265 h -0.901837 z m 7.220075,3.26535 v 0 l -0.263249,-1.94718 -0.812414,1.94718 z m -0.611962,-3.26535 h 1.025294 l 0.783707,5.35875 H 81.47912 l -0.186149,-1.18656 h -1.526328 l -0.515334,1.18656 h -0.998463 z m 4.111931,0 h 0.901836 l 1.340229,3.48471 0.484903,-3.48471 h 0.900061 l -0.746171,5.35875 h -0.889308 l -1.352756,-3.44087 -0.479324,3.44087 H 83.9576 Z m 9.682221,2.12268 v 0 c 0.322085,0 0.520712,-0.22855 0.572602,-0.60885 0.07151,-0.49754 -0.141511,-0.60698 -0.404256,-0.60698 H 93.60041 l -0.168398,1.21583 z m -0.297231,2.32741 v 0 c 0.27745,0 0.540393,-0.14457 0.619114,-0.70941 0.05731,-0.39697 -0.03552,-0.75505 -0.413386,-0.75505 h -0.993085 l -0.198831,1.46446 z m -1.270433,-4.45009 h 1.914602 c 0.973406,0 1.231074,0.74779 1.127298,1.52114 -0.06999,0.57956 -0.379402,0.98178 -0.805212,1.05491 0.341865,0.0658 0.638791,0.57227 0.554695,1.33287 -0.135937,1.1427 -0.619113,1.44983 -1.612198,1.44983 h -1.925356 z m 4.770404,1.06771 c 0.128838,-0.89949 0.645945,-1.08233 1.181015,-1.06771 0,0 1.583536,0.0519 1.989716,0.11706 l -0.11615,0.84836 h -1.798036 c -0.32209,0 -0.36165,0.21196 -0.38499,0.40941 l -0.11615,0.82092 1.823356,0.073 -0.12174,0.84283 -1.837656,0.073 -0.12325,0.84836 c -0.0507,0.38765 0.1613,0.38039 0.34694,0.38039 h 1.735656 l -0.12173,0.84286 c -0.375846,0.0585 -1.966486,0.12432 -1.966486,0.12432 -0.450921,0.0207 -1.062881,-0.19745 -0.934047,-1.12078 z m 4.319531,3.32385 c 0.26324,0.0363 0.99309,0.0823 1.59252,0.0823 0.26832,0 0.59228,-0.0601 0.64955,-0.46279 l 0.0405,-0.28506 c 0.0406,-0.30731 0.0104,-0.50477 -0.36165,-0.50477 h -0.64954 c -1.13445,0 -1.12192,-1.00371 -1.06466,-1.43522 l 0.0644,-0.55759 c 0.14861,-1.09701 0.76586,-1.27253 1.47444,-1.27253 0.67815,-0.004 1.35453,0.0716 1.76071,0.21196 l -0.11614,0.80444 c -0.36673,-0.0311 -1.29372,-0.073 -1.52811,-0.073 -0.41136,-0.0156 -0.62448,0.0363 -0.69428,0.52111 l -0.0304,0.26328 c -0.0715,0.47525 0.0964,0.51204 0.43825,0.51204 h 0.66922 c 0.89646,0 1.01991,0.82637 0.94119,1.42055 l -0.0355,0.48249 c -0.0913,1.25243 -0.9555,1.31825 -1.54063,1.31825 -0.73542,0 -1.27581,-0.0585 -1.71421,-0.21922 z m 5.05314,-4.39156 h 3.48566 l -0.13442,0.94337 h -1.31517 l -0.61195,4.41538 h -0.90362 l 0.61374,-4.41538 H 106.825 Z m -69.704507,0 h 1.912827 c 0.973408,0 1.231075,0.74779 1.129123,1.52114 -0.06999,0.57956 -0.381429,0.98178 -0.805212,1.05491 0.339838,0.0658 0.636968,0.57227 0.55287,1.33287 -0.133904,1.1427 -0.619113,1.44983 -1.610424,1.44983 h -1.92713 z"
       style="fill:#ffffff;fill-opacity:1;fill-rule:nonzero;stroke:none;stroke-width:1.80872655"
       id="path110"
       inkscape:connector-curvature="0" />
    <path
       d="m 20.371796,245.25794 h 31.474871 l 19.02983,-14.32655 21.241461,17.86435 H 86.53159 L 71.263001,235.86781 53.618134,248.75185 H 13.89972 Z"
       style="fill:#e41b2f;fill-opacity:1;fill-rule:nonzero;stroke:none;stroke-width:1.80872655"
       id="path114"
       inkscape:connector-curvature="0" />
    <path
       d="m 58.042817,237.1458 v -7.65511 l 1.105841,-0.65457 v 7.53625 l 7.522477,-5.2655 -7.466987,-4.62924 -12.003058,5.8524 v 12.40318 l 1.88062,-1.31639 v -9.73384 l 1.105842,-0.65456 v 9.61506 l 1.880619,-1.31638 v -9.08483 l 1.105842,-0.65637 v 8.96598 l 1.882393,-1.31636 v -8.34802 l 1.105792,-0.65458 v 8.22925 z"
       style="fill:#e41b2f;fill-opacity:1;fill-rule:nonzero;stroke:none;stroke-width:1.80872655"
       id="path118"
       inkscape:connector-curvature="0" />
    <path
       d="m 69.880367,242.15584 h -3.263808 v -2.57786 h 3.263808 z"
       style="fill:#e41b2f;fill-opacity:1;fill-rule:nonzero;stroke:none;stroke-width:1.80872655"
       id="path120"
       inkscape:connector-curvature="0" />
    <path
       d="m 74.527315,242.15584 h -3.26381 v -2.57786 h 3.26381 z"
       style="fill:#e41b2f;fill-opacity:1;fill-rule:nonzero;stroke:none;stroke-width:1.80872655"
       id="path122"
       inkscape:connector-curvature="0" />
    <path
       d="m 69.880367,246.04284 h -3.263808 v -2.57611 h 3.263808 z"
       style="fill:#e41b2f;fill-opacity:1;fill-rule:nonzero;stroke:none;stroke-width:1.80872655"
       id="path124"
       inkscape:connector-curvature="0" />
    <path
       d="m 74.527315,246.04284 h -3.26381 v -2.57611 h 3.26381 z"
       style="fill:#e41b2f;fill-opacity:1;fill-rule:nonzero;stroke:none;stroke-width:1.80872655"
       id="path126"
       inkscape:connector-curvature="0" />
    <path
       d="m 63.132161,227.0883 v -26.64387 l 16.705443,-7.07372 12.833275,7.90375 v 17.60289 l -10.068724,4.76089 v 9.04097 l -2.82004,2.00931 v -38.08539 l -2.54447,1.00372 v 35.07236 l -2.102478,-2.22872 v -32.05745 l -1.825131,0.65453 v 30.70452 l -2.268946,-2.13911 v -27.51781 l -1.93606,0.78802 v 27.29655 l -2.045262,1.4846 v -27.99496 l -2.046987,0.69841 v 26.6859 z"
       style="fill:#e41b2f;fill-opacity:1;fill-rule:nonzero;stroke:none;stroke-width:1.80872655"
       id="path130"
       inkscape:connector-curvature="0" />
    <path
       d="m 84.649903,231.01892 -0.05527,-6.33324 10.677083,-4.89252 10.011454,5.19971 v 20.35079 h -1.32771 v -19.43482 l -1.54961,-0.7423 v 18.0819 h -1.27221 v -18.60665 l -1.383186,-0.82822 v 17.68704 h -1.54778 V 223.0256 l -1.105838,-0.74229 v 16.46752 H 95.824629 V 221.9341 l -1.052178,-0.47887 v 15.98488 l -8.241768,-7.6423 z"
       style="fill:#e41b2f;fill-opacity:1;fill-rule:nonzero;stroke:none;stroke-width:1.80872655"
       id="path134"
       inkscape:connector-curvature="0" />
    <path
       d="m 80.887751,236.74046 4.702438,-3.75537 14.824871,12.97182 h 31.97226 l 6.19655,2.88143 H 98.976384 L 85.47926,237.5266 l -2.378051,1.57234 z"
       style="fill:#e41b2f;fill-opacity:1;fill-rule:nonzero;stroke:none;stroke-width:1.80872655"
       id="path138"
       inkscape:connector-curvature="0" />
    <path
       d="m 99.609494,253.36026 h -5.627553 c 0,0 -1.748184,-0.14829 -2.386977,1.15732 -0.638844,1.30907 -1.279413,2.55595 -1.279413,2.55595 0,0 -0.597656,1.39501 1.152354,2.04956 1.746409,0.65269 3.748712,0.91959 2.684057,2.19763 -1.066482,1.27611 -1.449383,1.00919 -2.302933,1.00919 h -3.621652 l -1.322322,2.49564 6.949828,0.0876 c 0,0 2.131134,0.17932 3.238752,-1.95996 1.109389,-2.13724 1.322319,-2.82103 1.322319,-2.82103 0,0 0.51179,-1.63267 -1.279358,-2.22692 -1.791145,-0.59416 -2.771704,-0.6234 -2.599959,-1.51564 0.126806,-0.68198 0.808814,-0.50478 0.808814,-0.50478 h 2.898763 z"
       style="fill:#e41b2f;fill-opacity:1;fill-rule:nonzero;stroke:none;stroke-width:1.80872655"
       id="path142"
       inkscape:connector-curvature="0" />
    <path
       d="m 102.55477,253.21219 -1.23285,2.52484 h 2.87548 l -4.230056,9.08852 h 4.351746 l 4.23183,-8.91117 h 2.46393 l 1.43506,-2.67296 z"
       style="fill:#e41b2f;fill-opacity:1;fill-rule:nonzero;stroke:none;stroke-width:1.80872655"
       id="path146"
       inkscape:connector-curvature="0" />
    <path
       d="m 123.67942,253.27194 -5.5363,11.55309 h 7.21828 l 1.14877,-2.34574 h -2.91129 l 0.9412,-2.25797 h 2.83078 l 1.27222,-2.64373 h -2.83074 l 0.82127,-1.693 h 2.83081 l 1.31156,-2.58337 z"
       style="fill:#e41b2f;fill-opacity:1;fill-rule:nonzero;stroke:none;stroke-width:1.80872655"
       id="path150"
       inkscape:connector-curvature="0" />
    <path
       d="m 133.39775,253.27194 -5.40919,11.55309 h 7.17174 l 1.31338,-2.43529 h -3.07593 l 4.1406,-9.1178 z"
       style="fill:#e41b2f;fill-opacity:1;fill-rule:nonzero;stroke:none;stroke-width:1.80872655"
       id="path154"
       inkscape:connector-curvature="0" />
    <path
       d="m 11.055534,264.85499 5.708051,-11.58046 h 14.363201 c 0,0 1.962892,0.13531 0.982334,2.12632 -0.982334,1.98918 -4.541395,9.49805 -4.541395,9.49805 h -4.29803 l 3.866793,-8.18717 c 0,0 0.676376,-0.88305 -1.318772,-0.88305 l -4.326639,9.02631 h -4.205006 l 4.326689,-9.02631 h -1.841259 l -4.38933,9.02631 z"
       style="fill:#e41b2f;fill-opacity:1;fill-rule:nonzero;stroke:none;stroke-width:1.80872655"
       id="path158"
       inkscape:connector-curvature="0" />
    <path
       d="m 28.985812,264.89795 6.11063,-7.2748 h 4.201457 l -3.612726,4.69142 h 2.583829 l 1.851962,-5.87069 c 0,0 0.146593,-0.58872 -0.617287,-0.58872 h -3.671765 l 1.145151,-2.60717 h 6.550842 c 0,0 1.615799,0.0466 1.086159,1.47544 -0.350994,1.24506 -2.995381,10.17452 -2.995381,10.17452 z"
       style="fill:#e41b2f;fill-opacity:1;fill-rule:nonzero;stroke:none;stroke-width:1.80872655"
       id="path162"
       inkscape:connector-curvature="0" />
    <path
       d="m 43.428237,264.89172 1.191712,-2.51755 h 4.262271 c 0,0 1.012766,0.15704 1.490516,-0.88492 0.654923,-1.42971 -0.506204,-1.63268 -0.506204,-1.63268 l -2.206306,-0.81723 c 0,0 -1.431476,-0.54484 -0.923293,-1.81551 0.506207,-1.27068 1.250754,-2.76803 1.250754,-2.76803 0,0 0.358098,-1.15733 2.234914,-1.15733 h 5.663314 l -1.191714,2.51943 h -2.981084 c 0,0 -0.715739,-0.0914 -1.073583,0.63439 -0.297228,0.59056 0.357592,0.72582 0.357592,0.72582 l 2.682281,0.97448 c 0,0 1.431476,0.52293 0.925068,1.95265 -0.508185,1.42972 -1.460086,3.38056 -1.460086,3.38056 0,0 -0.626313,1.42972 -3.160031,1.42972 -2.531939,0 -6.556223,-0.0259 -6.556223,-0.0259"
       style="fill:#e41b2f;fill-opacity:1;fill-rule:nonzero;stroke:none;stroke-width:1.80872655"
       id="path166"
       inkscape:connector-curvature="0" />
    <path
       d="m 60.184146,253.34419 -4.544943,9.6022 c 0,0 -0.901837,1.97094 1.565687,1.97094 h 5.928133 c 0,0 1.74641,0.0897 2.709113,-1.81183 0.962652,-1.90331 4.603986,-9.80703 4.603986,-9.80703 h -4.212107 l -3.882921,8.19809 c 0,0 -0.08926,0.81542 -1.293716,0.81542 -0.812365,0.026 -0.572602,-0.76971 -0.572602,-0.76971 l 3.972396,-8.22186 z"
       style="fill:#e41b2f;fill-opacity:1;fill-rule:nonzero;stroke:none;stroke-width:1.80872655"
       id="path170"
       inkscape:connector-curvature="0" />
    <path
       d="m 77.728278,256.66344 v 0 c 0,0 -1.406419,3.20687 -2.209855,4.68962 -0.801611,1.48274 -2.249216,1.0293 -2.249216,1.0293 l 3.013292,-6.5069 c 1.968267,0 1.445779,0.78798 1.445779,0.78798 m 3.555461,-3.38967 H 73.29964 v 0.0206 l -5.482592,11.62071 h 8.345544 c 0,0 1.656986,0.22649 2.560599,-1.49922 0.903611,-1.72409 4.006378,-8.71368 4.006378,-8.71368 0,0 0.481352,-1.42974 -1.44583,-1.42974"
       style="fill:#e41b2f;fill-opacity:1;fill-rule:nonzero;stroke:none;stroke-width:1.80872655"
       id="path174"
       inkscape:connector-curvature="0" />
    <path
       d="m 113.9655,253.27194 -5.53626,11.55309 h 7.21825 l 1.15058,-2.34574 H 113.885 l 0.94298,-2.25797 h 2.82895 l 1.27227,-2.64373 h -2.83079 l 0.82134,-1.693 h 2.83074 l 1.31163,-2.58337 z"
       style="fill:#e41b2f;fill-opacity:1;fill-rule:nonzero;stroke:none;stroke-width:1.80872655"
       id="path178"
       inkscape:connector-curvature="0" />
    <path
       d="m 87.468476,268.83211 h 0.91974 c 0.173471,0 0.324115,0.004 0.45092,0.0259 0.126805,0.0156 0.241436,0.0414 0.339837,0.0787 0.10043,0.0363 0.187672,0.0861 0.263248,0.14613 0.0771,0.0601 0.14861,0.1373 0.218105,0.22854 0.09839,0.13159 0.186147,0.31615 0.261216,0.55579 0.0771,0.23943 0.114627,0.51723 0.114627,0.83191 0,0.0311 -0.0036,0.0948 -0.0051,0.19746 -0.0036,0.10399 -0.0203,0.22128 -0.04058,0.35448 -0.02537,0.13315 -0.06086,0.26898 -0.111084,0.41148 -0.05071,0.14257 -0.121741,0.269 -0.216583,0.38198 -0.07863,0.0969 -0.159266,0.17361 -0.244988,0.23218 -0.08217,0.0585 -0.173469,0.10624 -0.270349,0.14102 -0.09839,0.0363 -0.205931,0.0585 -0.325634,0.073 -0.118183,0.0104 -0.250568,0.0207 -0.397154,0.0207 h -0.95372 z m 1.037874,4.17949 c 0.08926,0 0.19122,-0.003 0.300779,-0.004 0.111086,-0.004 0.225208,-0.0156 0.343389,-0.0414 0.118183,-0.0206 0.237887,-0.0565 0.356068,-0.10254 0.119708,-0.0466 0.236365,-0.10981 0.34694,-0.18813 0.173469,-0.12078 0.312953,-0.26532 0.418455,-0.43325 0.105498,-0.16843 0.187672,-0.34361 0.244988,-0.52293 0.05884,-0.18087 0.10043,-0.36381 0.119708,-0.54665 0.02537,-0.18295 0.03552,-0.35087 0.03552,-0.5048 0,-0.30732 -0.03552,-0.6106 -0.111085,-0.90866 -0.07354,-0.29643 -0.207453,-0.56126 -0.402732,-0.79714 -0.125281,-0.15182 -0.259189,-0.27051 -0.400704,-0.35448 -0.143036,-0.086 -0.286072,-0.14828 -0.431137,-0.18813 -0.145069,-0.0363 -0.288102,-0.0622 -0.427587,-0.0716 -0.141511,-0.0104 -0.273898,-0.0104 -0.399183,-0.0104 h -1.129126 c -0.116151,0 -0.209481,0.004 -0.277448,0.0156 -0.07,0.0104 -0.121741,0.0311 -0.159266,0.0673 -0.03552,0.0363 -0.06087,0.0876 -0.07151,0.15705 -0.01018,0.0695 -0.01525,0.16274 -0.01525,0.28141 v 3.55791 c 0,0.12959 0.0036,0.23373 0.01018,0.3125 0.0051,0.0788 0.03044,0.13886 0.0624,0.18295 0.03552,0.0414 0.08776,0.073 0.159267,0.0841 0.07152,0.0156 0.168396,0.0207 0.29368,0.0207 z"
       style="fill:#ffffff;fill-opacity:1;fill-rule:nonzero;stroke:none;stroke-width:1.80872655"
       id="path182"
       inkscape:connector-curvature="0" />
    <path
       d="m 92.206518,268.83211 h 2.159794 c 0.04566,0 0.09638,0 0.148609,-10e-4 0.05174,-0.003 0.09839,-0.0104 0.139478,-0.0259 0.04058,-0.0156 0.07354,-0.0414 0.100431,-0.0752 0.02537,-0.0363 0.04056,-0.0861 0.04056,-0.14983 0,-0.0658 -0.01525,-0.11502 -0.04056,-0.14827 -0.02537,-0.0311 -0.06086,-0.0565 -0.103985,-0.0716 -0.04566,-0.0156 -0.08926,-0.026 -0.13797,-0.026 -0.05173,-0.001 -0.100431,-0.003 -0.146594,-0.003 h -2.26362 c -0.137971,0 -0.232816,0.003 -0.288101,0.0156 -0.05378,0.0104 -0.101957,0.0363 -0.14507,0.0841 -0.05071,0.0519 -0.07355,0.10253 -0.07862,0.16481 -0.0036,0.0601 -0.0051,0.14826 -0.0051,0.2612 v 3.63652 c 0,0.12959 0.0036,0.22284 0.01018,0.27986 0.0051,0.0565 0.03552,0.10624 0.08064,0.14982 0.02537,0.0206 0.05071,0.0414 0.07152,0.0529 0.0203,0.0104 0.04565,0.0207 0.07506,0.0311 0.02537,0.004 0.0624,0.0104 0.105498,0.0104 h 0.175499 2.353043 c 0.05072,0 0.09839,-0.001 0.150134,-0.003 0.05174,-0.003 0.09839,-0.0104 0.137971,-0.0259 0.04057,-0.0157 0.07506,-0.0414 0.101947,-0.0753 0.02537,-0.0363 0.04059,-0.0841 0.04059,-0.14982 0,-0.0658 -0.01525,-0.11502 -0.04059,-0.14829 -0.02537,-0.031 -0.06086,-0.0551 -0.103984,-0.0716 -0.04057,-0.0156 -0.08926,-0.0259 -0.139478,-0.0259 -0.05071,-10e-4 -0.09839,-0.003 -0.146593,-0.003 h -2.249116 v -1.6676 h 1.984398 c 0.05071,0 0.09638,-0.001 0.145069,-0.003 0.05072,-10e-4 0.09485,-0.0104 0.134413,-0.0311 0.03552,-0.0156 0.06999,-0.0414 0.09688,-0.0753 0.02537,-0.0311 0.04056,-0.0803 0.04056,-0.14827 0,-0.0601 -0.01525,-0.10786 -0.04056,-0.14256 -0.02537,-0.0363 -0.05884,-0.0601 -0.09688,-0.075 -0.04057,-0.0156 -0.08419,-0.0259 -0.134413,-0.0259 -0.05071,-10e-4 -0.09638,-10e-4 -0.145069,-10e-4 h -1.984398 z"
       style="fill:#ffffff;fill-opacity:1;fill-rule:nonzero;stroke:none;stroke-width:1.80872655"
       id="path186"
       inkscape:connector-curvature="0" />
    <path
       d="m 98.935094,271.65683 c 0,-0.0695 -0.005,-0.14611 -0.0254,-0.23011 -0.0203,-0.0861 -0.0457,-0.16999 -0.0786,-0.25395 -0.0355,-0.0823 -0.0786,-0.16066 -0.13238,-0.23788 -0.0538,-0.0768 -0.11462,-0.14103 -0.18412,-0.19176 -0.0609,-0.0414 -0.12528,-0.086 -0.19528,-0.12433 -0.068,-0.0414 -0.15217,-0.0787 -0.24854,-0.11502 -0.0984,-0.0363 -0.213032,-0.073 -0.346937,-0.11133 -0.134412,-0.0363 -0.295201,-0.0788 -0.486931,-0.12805 -0.112608,-0.0259 -0.230785,-0.0551 -0.352516,-0.0914 -0.123249,-0.0363 -0.234337,-0.0803 -0.334767,-0.14101 -0.10043,-0.0565 -0.1826,-0.1316 -0.244987,-0.2213 -0.06593,-0.0897 -0.0984,-0.2047 -0.0984,-0.34359 0,-0.0948 0.0203,-0.18813 0.06441,-0.27779 0.04563,-0.0876 0.10753,-0.16843 0.191223,-0.2358 0.08572,-0.0674 0.186149,-0.12079 0.305853,-0.16274 0.116149,-0.0414 0.252088,-0.0623 0.404253,-0.0623 0.134414,0 0.259697,0.0156 0.379402,0.0519 0.118182,0.0311 0.220134,0.0788 0.302304,0.13887 0.09839,0.0753 0.166363,0.14982 0.205933,0.22284 0.0406,0.0753 0.0771,0.15911 0.11108,0.25602 0.0254,0.073 0.0573,0.14457 0.0964,0.21199 0.0406,0.0674 0.10906,0.10254 0.20745,0.10254 0.0878,0 0.15573,-0.0363 0.20391,-0.10254 0.0507,-0.0674 0.0751,-0.1353 0.0751,-0.20473 0,-0.0752 -0.0152,-0.15547 -0.0406,-0.24306 -0.0254,-0.0876 -0.0624,-0.16843 -0.1055,-0.24306 -0.0786,-0.13315 -0.17347,-0.24514 -0.28607,-0.33272 -0.11261,-0.0861 -0.23282,-0.15337 -0.35962,-0.20317 -0.127317,-0.0466 -0.25615,-0.0803 -0.388026,-0.10055 -0.13238,-0.0206 -0.259698,-0.0311 -0.380924,-0.0311 -0.20593,0 -0.406282,0.0259 -0.599432,0.0788 -0.19173,0.0518 -0.359619,0.1316 -0.504683,0.23944 -0.14507,0.10624 -0.259698,0.23943 -0.346939,0.4006 -0.08572,0.16274 -0.128839,0.34932 -0.128839,0.5631 0,0.12588 0.01525,0.23943 0.04565,0.33636 0.03044,0.0984 0.06797,0.1845 0.111084,0.26326 0.04057,0.0752 0.08926,0.13886 0.143037,0.19177 0.05072,0.0516 0.09638,0.0933 0.134413,0.12433 0.07,0.0565 0.139478,0.10254 0.211004,0.14102 0.07151,0.0363 0.157233,0.0716 0.257668,0.1042 0.09839,0.0311 0.218103,0.0658 0.359618,0.10056 0.139479,0.0363 0.316506,0.0768 0.535016,0.12434 0.08064,0.0207 0.175498,0.0414 0.281,0.073 0.105498,0.0311 0.207453,0.0753 0.304333,0.1353 0.0984,0.0623 0.17905,0.14258 0.24702,0.23946 0.0659,0.0984 0.10043,0.22284 0.10043,0.37469 0,0.14457 -0.0355,0.27052 -0.10043,0.3804 -0.068,0.10786 -0.15573,0.20109 -0.26325,0.27416 -0.10753,0.075 -0.230787,0.13006 -0.36875,0.16843 -0.139494,0.0363 -0.278972,0.0551 -0.422514,0.0551 -0.207455,0 -0.377373,-0.0311 -0.511786,-0.0876 -0.134412,-0.0601 -0.241437,-0.1296 -0.324113,-0.21405 -0.08217,-0.0824 -0.143037,-0.16636 -0.182599,-0.25394 -0.03552,-0.0876 -0.06644,-0.15703 -0.08419,-0.21041 -0.05527,-0.15184 -0.101957,-0.25756 -0.139479,-0.31977 -0.03552,-0.0601 -0.09839,-0.0911 -0.184121,-0.0911 -0.0771,0 -0.141511,0.0259 -0.193249,0.0823 -0.05174,0.0551 -0.07863,0.11707 -0.07863,0.18656 0,0.13886 0.03552,0.29438 0.111084,0.46644 0.07355,0.17362 0.17347,0.32546 0.304334,0.46228 0.08774,0.0911 0.182598,0.16636 0.29165,0.22494 0.107529,0.0585 0.220134,0.10624 0.336288,0.141 0.118183,0.0363 0.234335,0.0585 0.350488,0.0716 0.116149,0.0104 0.230785,0.0207 0.343387,0.0207 0.281,0 0.527864,-0.0363 0.74257,-0.11502 0.21303,-0.0752 0.39208,-0.17931 0.53507,-0.31096 0.14151,-0.12957 0.25057,-0.28348 0.32411,-0.4571 0.0715,-0.17568 0.10906,-0.36019 0.10906,-0.55579"
       style="fill:#ffffff;fill-opacity:1;fill-rule:nonzero;stroke:none;stroke-width:1.80872655"
       id="path190"
       inkscape:connector-curvature="0" />
    <path
       d="m 100.51113,268.76701 c 0,-0.10983 -0.004,-0.1959 -0.0102,-0.26171 -0.005,-0.0658 -0.0304,-0.11862 -0.0751,-0.15704 -0.0304,-0.0363 -0.0659,-0.0601 -0.10752,-0.0753 -0.0406,-0.0156 -0.0807,-0.0206 -0.11971,-0.0206 -0.0553,0 -0.10196,0.0104 -0.13948,0.0311 -0.0355,0.0259 -0.0659,0.0414 -0.0878,0.0658 -0.0406,0.0363 -0.068,0.0913 -0.0751,0.15338 -0.005,0.0643 -0.0102,0.15182 -0.0102,0.26535 v 3.8065 c 0,0.11352 0.004,0.20109 0.0102,0.26483 0.005,0.0622 0.0304,0.11503 0.0751,0.15911 0.0304,0.0311 0.0659,0.0529 0.10753,0.0695 0.0406,0.0156 0.0806,0.0206 0.11971,0.0206 0.0517,0 0.0964,-0.0104 0.13594,-0.0311 0.0406,-0.0207 0.068,-0.0414 0.0913,-0.0658 0.0406,-0.0363 0.068,-0.0897 0.0751,-0.15183 0.005,-0.0638 0.0102,-0.15183 0.0102,-0.26534 z"
       style="fill:#ffffff;fill-opacity:1;fill-rule:nonzero;stroke:none;stroke-width:1.80872655"
       id="path194"
       inkscape:connector-curvature="0" />
    <path
       d="m 105.21696,272.14772 c -0.22368,0.15183 -0.44889,0.26328 -0.67277,0.33272 -0.22521,0.0716 -0.45447,0.10624 -0.68891,0.10624 -0.20593,0 -0.42049,-0.0311 -0.64062,-0.0984 -0.22014,-0.0658 -0.41338,-0.18088 -0.57615,-0.34722 -0.10551,-0.10421 -0.1897,-0.22132 -0.25767,-0.34932 -0.0665,-0.12806 -0.1197,-0.25758 -0.15927,-0.38923 -0.0355,-0.12958 -0.0623,-0.25964 -0.0771,-0.38921 -0.0104,-0.12804 -0.0202,-0.24875 -0.0202,-0.36226 0,-0.27053 0.0355,-0.52105 0.10752,-0.75141 0.0716,-0.23218 0.17702,-0.43172 0.31651,-0.60337 0.14151,-0.16843 0.31498,-0.30161 0.51894,-0.39697 0.20593,-0.0969 0.44381,-0.14458 0.71751,-0.14458 0.20593,0 0.38295,0.0259 0.52786,0.0788 0.14507,0.0517 0.26681,0.11502 0.36673,0.19176 0.0984,0.0768 0.17904,0.15702 0.24143,0.24513 0.0644,0.0876 0.11462,0.16844 0.15216,0.24306 0.0609,0.11352 0.11463,0.18811 0.15927,0.22492 0.0456,0.0363 0.0948,0.0551 0.14507,0.0551 0.11463,0 0.19173,-0.0259 0.23788,-0.084 0.0456,-0.0565 0.0679,-0.11861 0.0679,-0.19021 0,-0.0467 -0.0255,-0.14102 -0.0751,-0.27777 -0.0507,-0.13731 -0.1415,-0.27988 -0.27896,-0.42756 -0.13441,-0.14829 -0.32412,-0.27986 -0.56185,-0.39337 -0.24144,-0.11352 -0.55114,-0.16844 -0.9305,-0.16844 -0.40983,0 -0.76402,0.0658 -1.0611,0.20108 -0.29521,0.13532 -0.53856,0.31459 -0.72827,0.53937 -0.1897,0.22491 -0.33273,0.48456 -0.42251,0.77889 -0.0913,0.29436 -0.13594,0.59967 -0.13594,0.91777 0,0.32341 0.0457,0.63078 0.13948,0.92329 0.0928,0.29073 0.23434,0.54665 0.42758,0.76422 0.19326,0.21768 0.43825,0.39129 0.73548,0.51925 0.29874,0.12806 0.6531,0.19383 1.06288,0.19383 0.25969,0 0.49758,-0.026 0.71391,-0.0861 0.21658,-0.0565 0.40425,-0.11862 0.56367,-0.18813 0.15927,-0.0695 0.28455,-0.1353 0.37738,-0.19745 0.0892,-0.0601 0.13795,-0.0933 0.1415,-0.0969 0.0786,-0.0585 0.12325,-0.11502 0.13594,-0.17723 0.0104,-0.0601 0.0204,-0.13885 0.0204,-0.23427 v -1.02749 c 0,-0.0969 -0.004,-0.17361 -0.0254,-0.23219 -0.0153,-0.0585 -0.0405,-0.104 -0.0806,-0.13731 -0.0405,-0.0311 -0.0913,-0.0551 -0.1557,-0.0658 -0.066,-0.0104 -0.14659,-0.0156 -0.24702,-0.0156 h -1.16666 c -0.0355,0 -0.0735,0.001 -0.11614,0.003 -0.0406,10e-4 -0.0822,0.0104 -0.11971,0.031 -0.0355,0.0156 -0.0679,0.0414 -0.0948,0.0753 -0.0253,0.031 -0.0406,0.0823 -0.0406,0.14827 0,0.0601 0.0153,0.10785 0.0406,0.14257 0.0253,0.0363 0.0609,0.0601 0.10201,0.0752 0.0405,0.0156 0.0857,0.026 0.13797,0.026 0.0538,10e-4 0.10399,10e-4 0.15571,10e-4 h 1.01814 z"
       style="fill:#ffffff;fill-opacity:1;fill-rule:nonzero;stroke:none;stroke-width:1.80872655"
       id="path198"
       inkscape:connector-curvature="0" />
    <path
       d="m 109.83282,272.08264 -2.30111,-3.46649 c -0.0877,-0.1353 -0.1557,-0.22855 -0.20746,-0.28348 -0.0517,-0.0551 -0.12527,-0.0823 -0.22013,-0.0823 -0.0737,0 -0.13034,0.0104 -0.16991,0.0363 -0.0405,0.026 -0.0644,0.0414 -0.0771,0.0551 -0.0304,0.0259 -0.0537,0.0528 -0.0716,0.0823 -0.0153,0.031 -0.0303,0.0601 -0.0355,0.0969 -0.005,0.0363 -0.0104,0.0841 -0.0153,0.13732 -0.002,0.0551 -0.003,0.12233 -0.003,0.2011 v 3.72612 c 0,0.10785 0.003,0.19539 0.0104,0.25757 0.005,0.0638 0.0304,0.11502 0.0735,0.15337 0.0609,0.0623 0.13442,0.0911 0.22014,0.0911 0.0624,0 0.11462,-0.0156 0.16282,-0.0467 0.0507,-0.031 0.0806,-0.0673 0.0968,-0.10254 0.0254,-0.0414 0.0355,-0.0876 0.0355,-0.13161 0,-0.0414 0.002,-0.11502 0.002,-0.22128 l -0.0255,-3.28183 2.26174,3.4061 c 0.0456,0.0695 0.0893,0.1296 0.12324,0.17569 0.0355,0.052 0.0679,0.0876 0.10045,0.11862 0.0304,0.0311 0.0665,0.0519 0.10045,0.0658 0.0355,0.0104 0.0786,0.0207 0.13036,0.0207 0.0948,0 0.17905,-0.031 0.25209,-0.0911 0.0644,-0.0565 0.10396,-0.12078 0.11266,-0.19175 0.0104,-0.073 0.0153,-0.18813 0.0153,-0.34931 v -3.70047 c 0,-0.10983 -0.003,-0.19539 -0.0104,-0.25965 -0.004,-0.0623 -0.0304,-0.11352 -0.0751,-0.15337 -0.0609,-0.0601 -0.13442,-0.0914 -0.22014,-0.0914 -0.0609,0 -0.11464,0.0156 -0.15926,0.0519 -0.0457,0.0311 -0.0751,0.0658 -0.0928,0.10055 -0.0204,0.0414 -0.0355,0.0897 -0.0405,0.13532 -0.005,0.0467 -0.005,0.11861 0,0.21922 z"
       style="fill:#ffffff;fill-opacity:1;fill-rule:nonzero;stroke:none;stroke-width:1.80872655"
       id="path202"
       inkscape:connector-curvature="0" />
    <path
       d="m 113.92973,268.83211 h 1.00563 c 0.0807,0 0.18615,0.003 0.31295,0.0104 0.12673,0.004 0.24853,0.031 0.36672,0.0788 0.11623,0.0466 0.21657,0.11862 0.30078,0.21921 0.0858,0.10056 0.12689,0.2467 0.12689,0.43897 0,0.10786 -0.0204,0.20679 -0.0518,0.29075 -0.0354,0.0841 -0.0928,0.16843 -0.1755,0.2524 -0.0858,0.086 -0.19325,0.14456 -0.32006,0.17206 -0.12672,0.031 -0.25411,0.0414 -0.3794,0.0414 h -1.18612 z m 1.2955,2.00747 c 0.11266,0 0.24144,0.0157 0.3865,0.0466 0.14508,0.0311 0.27744,0.10055 0.39918,0.21041 0.15214,0.13886 0.22723,0.32755 0.22723,0.56858 0,0.13887 -0.0254,0.26121 -0.0751,0.36539 -0.0507,0.104 -0.10904,0.18813 -0.17904,0.24877 -0.0255,0.0206 -0.0552,0.0466 -0.0893,0.0716 -0.0355,0.0259 -0.0822,0.0518 -0.13951,0.075 -0.0588,0.0259 -0.13083,0.0414 -0.21811,0.0601 -0.0858,0.0156 -0.1897,0.0206 -0.31143,0.0206 h -1.29549 v -1.66739 z m 0.0456,2.17202 c 0.23283,0 0.4276,-0.0206 0.58691,-0.0638 0.15722,-0.0414 0.29165,-0.0913 0.40425,-0.15337 0.19528,-0.10787 0.34542,-0.26329 0.45092,-0.46282 0.10554,-0.20109 0.15919,-0.41511 0.15919,-0.64177 0,-0.20833 -0.0355,-0.38402 -0.10397,-0.52285 -0.07,-0.13887 -0.15214,-0.2524 -0.24702,-0.33636 -0.0949,-0.0861 -0.19325,-0.14983 -0.2952,-0.19384 -0.10045,-0.0467 -0.18412,-0.0768 -0.24855,-0.0969 0.1684,-0.0788 0.29877,-0.17206 0.38804,-0.2778 0.0913,-0.10785 0.1572,-0.21041 0.20237,-0.31095 0.0406,-0.10055 0.066,-0.19175 0.0737,-0.27261 0.004,-0.0803 0.0104,-0.13531 0.0104,-0.16636 0,-0.20834 -0.0507,-0.40061 -0.14312,-0.57594 -0.0947,-0.17361 -0.2328,-0.31251 -0.40983,-0.41668 -0.0355,-0.0207 -0.0737,-0.0414 -0.1182,-0.0658 -0.0456,-0.0207 -0.10543,-0.0414 -0.17549,-0.0623 -0.0715,-0.0206 -0.15918,-0.0363 -0.26325,-0.0466 -0.10397,-0.0104 -0.23078,-0.0156 -0.38294,-0.0156 h -1.33486 c -0.11615,0 -0.20948,0.004 -0.27897,0.0156 -0.0679,0.0104 -0.11971,0.0311 -0.15571,0.0673 -0.0354,0.0363 -0.0573,0.0876 -0.0679,0.15704 -0.0104,0.0695 -0.0153,0.16273 -0.0153,0.28141 v 3.63652 c 0,0.11502 0.005,0.21041 0.0153,0.27624 0.0104,0.0674 0.0355,0.12078 0.0679,0.15702 0.0355,0.0363 0.0878,0.0622 0.15571,0.0716 0.07,0.0104 0.16282,0.0206 0.27897,0.0206 z"
       style="fill:#ffffff;fill-opacity:1;fill-rule:nonzero;stroke:none;stroke-width:1.80872655"
       id="path206"
       inkscape:connector-curvature="0" />
    <path
       d="m 118.39618,268.83211 h 0.92151 c 0.17195,0 0.32208,0.004 0.45091,0.0259 0.12524,0.0156 0.23993,0.0414 0.33985,0.0787 0.0983,0.0363 0.18614,0.0861 0.26121,0.14613 0.0771,0.0601 0.14853,0.1373 0.21811,0.22854 0.0983,0.13159 0.18615,0.31615 0.26324,0.55579 0.0751,0.23943 0.11265,0.51723 0.11265,0.83191 0,0.0311 -0.001,0.0948 -0.004,0.19746 -0.003,0.10399 -0.0204,0.22128 -0.0406,0.35448 -0.0254,0.13315 -0.0609,0.26898 -0.11119,0.41148 -0.0507,0.14257 -0.1218,0.269 -0.21657,0.38198 -0.0786,0.0969 -0.15918,0.17361 -0.24347,0.23218 -0.0842,0.0585 -0.17549,0.10624 -0.27187,0.14102 -0.0984,0.0363 -0.20594,0.0585 -0.32563,0.073 -0.11821,0.0104 -0.25059,0.0207 -0.39716,0.0207 h -0.95374 z m 1.0378,4.17949 c 0.0894,0 0.19123,-0.003 0.30079,-0.004 0.1112,-0.004 0.22571,-0.0156 0.34339,-0.0414 0.11819,-0.0206 0.23789,-0.0565 0.35607,-0.10254 0.11968,-0.0466 0.23635,-0.10981 0.34693,-0.18813 0.17348,-0.12078 0.31295,-0.26532 0.41846,-0.43325 0.10554,-0.16843 0.18767,-0.34361 0.24701,-0.52293 0.0573,-0.18087 0.0984,-0.36381 0.11819,-0.54665 0.0254,-0.18295 0.0355,-0.35087 0.0355,-0.5048 0,-0.30732 -0.0355,-0.6106 -0.11118,-0.90866 -0.0737,-0.29643 -0.20745,-0.56126 -0.40273,-0.79714 -0.12329,-0.15182 -0.2597,-0.27051 -0.4007,-0.35448 -0.14295,-0.086 -0.28659,-0.14828 -0.43113,-0.18813 -0.14509,-0.0363 -0.28811,-0.0622 -0.42759,-0.0716 -0.14147,-0.0104 -0.27391,-0.0104 -0.39919,-0.0104 h -1.12908 c -0.11606,0 -0.20745,0.004 -0.27745,0.0156 -0.07,0.0104 -0.12181,0.0311 -0.15935,0.0673 -0.0355,0.0363 -0.0609,0.0876 -0.0715,0.15705 -0.0104,0.0695 -0.0147,0.16274 -0.0147,0.28141 v 3.55791 c 0,0.12959 0.003,0.23373 0.0104,0.3125 0.004,0.0788 0.0254,0.13886 0.0609,0.18295 0.0355,0.0414 0.0877,0.073 0.15918,0.0841 0.0715,0.0156 0.1684,0.0207 0.29368,0.0207 z"
       style="fill:#ffffff;fill-opacity:1;fill-rule:nonzero;stroke:none;stroke-width:1.80872655"
       id="path210"
       inkscape:connector-curvature="0" />
    <path
       d="m 122.14341,272.37005 c -0.10045,0 -0.18413,0.0363 -0.25413,0.10431 -0.068,0.0695 -0.10191,0.15547 -0.10191,0.25599 0,0.0986 0.0355,0.18452 0.10191,0.25397 0.07,0.0695 0.15361,0.1042 0.25413,0.1042 0.0983,0 0.18411,-0.0363 0.25207,-0.1042 0.07,-0.0695 0.10396,-0.15548 0.10396,-0.25397 0,-0.10055 -0.0355,-0.18656 -0.10396,-0.25599 -0.068,-0.0695 -0.15361,-0.10431 -0.25207,-0.10431"
       style="fill:#ffffff;fill-opacity:1;fill-rule:nonzero;stroke:none;stroke-width:1.80872655"
       id="path214"
       inkscape:connector-curvature="0" />
    <path
       d="m 125.91611,272.50755 v -3.74074 c 0,-0.10785 -0.001,-0.19539 -0.0104,-0.26173 -0.004,-0.0658 -0.0304,-0.11708 -0.0751,-0.15547 -0.0609,-0.0674 -0.13804,-0.0984 -0.2328,-0.0984 -0.0537,0 -0.0984,0.0104 -0.13591,0.0311 -0.0406,0.026 -0.07,0.0414 -0.0913,0.0674 -0.0405,0.0363 -0.0624,0.0897 -0.068,0.15183 -0.004,0.0638 -0.0104,0.15338 -0.0104,0.26536 v 3.72063 c 0,0.11708 0.004,0.21041 0.0147,0.28142 0.0104,0.0695 0.0355,0.12078 0.07,0.15704 0.0355,0.0363 0.0858,0.0565 0.15574,0.0673 0.068,0.0104 0.16083,0.0156 0.27746,0.0156 h 2.0685 c 0.0507,0 0.1019,-0.001 0.15213,-0.003 0.0507,-0.001 0.0964,-0.0104 0.13951,-0.0206 0.0405,-0.0156 0.0771,-0.0363 0.10191,-0.0716 0.0253,-0.0363 0.0405,-0.0861 0.0405,-0.15183 0,-0.0638 -0.0104,-0.11503 -0.0405,-0.14982 -0.0304,-0.0363 -0.0624,-0.0601 -0.10397,-0.075 -0.0406,-0.0156 -0.0877,-0.0259 -0.13951,-0.0259 -0.0518,-0.001 -0.10045,-0.001 -0.14852,-0.001 z"
       style="fill:#ffffff;fill-opacity:1;fill-rule:nonzero;stroke:none;stroke-width:1.80872655"
       id="path218"
       inkscape:connector-curvature="0" />
    <path
       d="m 129.9998,268.83211 h 1.05572 c 0.0964,0 0.17194,-10e-4 0.22722,-0.0104 0.0574,-0.004 0.10191,-0.0259 0.13591,-0.0622 0.0255,-0.0206 0.0405,-0.0518 0.0588,-0.0823 0.0204,-0.031 0.0254,-0.0638 0.0254,-0.0948 0,-0.0363 -0.0104,-0.0658 -0.0254,-0.0969 -0.0204,-0.0311 -0.0355,-0.0565 -0.0588,-0.0789 -0.0355,-0.0363 -0.0786,-0.0622 -0.13591,-0.0695 -0.0551,-0.004 -0.13032,-0.0104 -0.22722,-0.0104 h -2.72881 c -0.0949,0 -0.17193,0.003 -0.22926,0.0104 -0.0588,0.004 -0.10544,0.0311 -0.13951,0.0695 -0.0204,0.0207 -0.0405,0.0467 -0.0552,0.0823 -0.0148,0.031 -0.0255,0.0638 -0.0255,0.0933 0,0.0363 0.0104,0.068 0.0255,0.099 0.0147,0.0311 0.0354,0.0565 0.0573,0.0788 0.0355,0.0363 0.0806,0.055 0.13591,0.0623 0.0573,0.004 0.1323,0.0104 0.22723,0.0104 h 1.05035 v 3.74068 c 0,0.10787 0.003,0.19747 0.0104,0.26537 0.004,0.0674 0.0304,0.12079 0.0807,0.15911 0.0609,0.0622 0.13443,0.0914 0.22014,0.0914 0.0518,0 0.0964,-0.0104 0.1359,-0.0311 0.0406,-0.0206 0.07,-0.0414 0.0913,-0.0622 0.0405,-0.0363 0.068,-0.0933 0.0751,-0.16479 0.004,-0.0674 0.0104,-0.1555 0.0104,-0.25966 z"
       style="fill:#ffffff;fill-opacity:1;fill-rule:nonzero;stroke:none;stroke-width:1.80872655"
       id="path222"
       inkscape:connector-curvature="0" />
    <path
       d="m 132.7547,268.83211 h 0.92151 c 0.17196,0 0.32209,0.004 0.45093,0.0259 0.12738,0.0156 0.23991,0.0414 0.33983,0.0787 0.0983,0.0363 0.18615,0.0861 0.26325,0.14613 0.0751,0.0601 0.14655,0.1373 0.21658,0.22854 0.0983,0.13159 0.18616,0.31615 0.26325,0.55579 0.0751,0.23943 0.11265,0.51723 0.11265,0.83191 0,0.0311 -0.001,0.0948 -0.004,0.19746 -0.003,0.10399 -0.0204,0.22128 -0.0406,0.35448 -0.0255,0.13315 -0.0609,0.26898 -0.11119,0.41148 -0.0507,0.14257 -0.12181,0.269 -0.21658,0.38198 -0.0786,0.0969 -0.15918,0.17361 -0.24346,0.23218 -0.0842,0.0585 -0.17549,0.10624 -0.27188,0.14102 -0.0984,0.0363 -0.20591,0.0585 -0.32562,0.073 -0.1182,0.0104 -0.25058,0.0207 -0.39716,0.0207 h -0.95372 z m 1.03782,4.17949 c 0.0894,0 0.19172,-0.003 0.3023,-0.004 0.10904,-0.004 0.22369,-0.0156 0.34187,-0.0414 0.11968,-0.0206 0.23788,-0.0565 0.35606,-0.10254 0.11968,-0.0466 0.23638,-0.10981 0.34696,-0.18813 0.17346,-0.12078 0.31296,-0.26532 0.41845,-0.43325 0.10555,-0.16843 0.18767,-0.34361 0.24702,-0.52293 0.0573,-0.18087 0.0983,-0.36381 0.11967,-0.54665 0.0204,-0.18295 0.0304,-0.35087 0.0304,-0.5048 0,-0.30732 -0.0355,-0.6106 -0.11119,-0.90866 -0.0735,-0.29643 -0.20745,-0.56126 -0.40274,-0.79714 -0.12328,-0.15182 -0.25917,-0.27051 -0.4007,-0.35448 -0.14297,-0.086 -0.28657,-0.14828 -0.43114,-0.18813 -0.14507,-0.0363 -0.28607,-0.0622 -0.42759,-0.0716 -0.14148,-0.0104 -0.27389,-0.0104 -0.39917,-0.0104 h -1.12731 c -0.1182,0 -0.20948,0.004 -0.27897,0.0156 -0.07,0.0104 -0.12165,0.0311 -0.15919,0.0673 -0.0354,0.0363 -0.0609,0.0876 -0.0715,0.15705 -0.0104,0.0695 -0.0147,0.16274 -0.0147,0.28141 v 3.55791 c 0,0.12959 0.003,0.23373 0.0104,0.3125 0.004,0.0788 0.0255,0.13886 0.0609,0.18295 0.0355,0.0414 0.0877,0.073 0.15934,0.0841 0.0715,0.0156 0.16841,0.0207 0.29521,0.0207 z"
       style="fill:#ffffff;fill-opacity:1;fill-rule:nonzero;stroke:none;stroke-width:1.80872655"
       id="path226"
       inkscape:connector-curvature="0" />
    <path
       d="m 136.50195,272.37005 c -0.10045,0 -0.18414,0.0363 -0.25208,0.10431 -0.07,0.0695 -0.10397,0.15547 -0.10397,0.25599 0,0.0986 0.0355,0.18452 0.10397,0.25397 0.0678,0.0695 0.15213,0.1042 0.25208,0.1042 0.0983,0 0.18411,-0.0363 0.25209,-0.1042 0.07,-0.0695 0.10396,-0.15548 0.10396,-0.25397 0,-0.10055 -0.0355,-0.18656 -0.10396,-0.25599 -0.068,-0.0695 -0.15361,-0.10431 -0.25209,-0.10431"
       style="fill:#ffffff;fill-opacity:1;fill-rule:nonzero;stroke:none;stroke-width:1.80872655"
       id="path230"
       inkscape:connector-curvature="0" />
    <path
       d="M 9.7507098,273.3083 H 83.044656 v -0.33271 H 9.7507098 Z"
       style="fill:url(#linearGradient248);stroke:none;stroke-width:1.80872655"
       id="path250"
       inkscape:connector-curvature="0" />
    <path
       d="M 9.7507098,272.49107 H 83.044656 v -0.33272 H 9.7507098 Z"
       style="fill:url(#linearGradient268);stroke:none;stroke-width:1.80872655"
       id="path270"
       inkscape:connector-curvature="0" />
    <path
       d="M 9.7507098,271.67202 H 83.044656 v -0.33273 H 9.7507098 Z"
       style="fill:url(#linearGradient288);stroke:none;stroke-width:1.80872655"
       id="path290"
       inkscape:connector-curvature="0" />
    <path
       d="M 9.7507098,270.85478 H 83.044656 v -0.33274 H 9.7507098 Z"
       style="fill:url(#linearGradient308);stroke:none;stroke-width:1.80872655"
       id="path310"
       inkscape:connector-curvature="0" />
    <path
       d="M 9.7507098,270.03747 H 83.044656 v -0.33271 H 9.7507098 Z"
       style="fill:url(#linearGradient328);stroke:none;stroke-width:1.80872655"
       id="path330"
       inkscape:connector-curvature="0" />
    <path
       d="M 9.7507098,269.21842 H 83.044656 v -0.33274 H 9.7507098 Z"
       style="fill:url(#linearGradient348);stroke:none;stroke-width:1.80872655"
       id="path350"
       inkscape:connector-curvature="0" />
    <path
       d="M 9.7507098,268.40119 H 83.044656 v -0.33274 H 9.7507098 Z"
       style="fill:url(#linearGradient368);stroke:none;stroke-width:1.80872655"
       id="path370"
       inkscape:connector-curvature="0" />
  </g>
</svg>
